<svg width="15" height="15" viewBox="0 0 15 15" fill="none" xmlns="http://www.w3.org/2000/svg">
<path fill-rule="evenodd" clip-rule="evenodd" d="M14.585 7.34907C14.5847 6.85665 14.5411 6.36524 14.4548 5.88045H7.6852V8.65979H11.5535C11.4734 9.0997 11.3049 9.5188 11.0582 9.89173C10.8115 10.2647 10.4917 10.5837 10.1182 10.8295V12.6306H12.4403C13.8008 11.3809 14.585 9.53817 14.585 7.34907Z" fill="#4285F4"/>
<path fill-rule="evenodd" clip-rule="evenodd" d="M7.68525 14.3736C9.43476 14.4216 11.1362 13.7979 12.4403 12.6307L10.1182 10.8295C9.39339 11.2946 8.54627 11.5329 7.68525 11.5139C6.78945 11.5027 5.91973 11.2109 5.19847 10.6795C4.47721 10.1481 3.94072 9.40395 3.6645 8.55173H1.26205V10.4138C1.86012 11.6046 2.77758 12.6057 3.9119 13.3049C5.04623 14.0042 6.3527 14.3743 7.68525 14.3736Z" fill="#34A853"/>
<path fill-rule="evenodd" clip-rule="evenodd" d="M3.66448 8.55176C3.36521 7.6656 3.36521 6.70569 3.66448 5.81954V3.96016H1.26203C0.76091 4.96202 0.5 6.06682 0.5 7.18702C0.5 8.30721 0.76091 9.41202 1.26203 10.4139L3.66448 8.55176Z" fill="#FBBC05"/>
<path fill-rule="evenodd" clip-rule="evenodd" d="M7.68525 2.85736C8.70654 2.83981 9.69346 3.22621 10.4313 3.93252L12.493 1.8709C11.192 0.650114 9.4692 -0.0201275 7.68525 0.000460642C6.35269 -0.000150792 5.04623 0.369868 3.9119 1.06916C2.77758 1.76845 1.86012 2.76942 1.26205 3.96022L3.6645 5.8196C3.94119 4.96767 4.47782 4.22379 5.19898 3.69249C5.92013 3.16119 6.78959 2.86914 7.68525 2.85736Z" fill="#EA4335"/>
</svg>
