<svg width="137" height="120" viewBox="0 0 137 120" fill="none" xmlns="http://www.w3.org/2000/svg">
<g filter="url(#filter0_d)">
<path d="M30.1003 102.006L22.827 84.6058C22.652 84.2354 22.5534 83.8335 22.5371 83.4241C22.5353 83.1008 22.5982 82.7804 22.7221 82.4819C22.8461 82.1833 23.0286 81.9125 23.2588 81.6856C23.4891 81.4587 23.7625 81.2801 24.0628 81.1605C24.3632 81.041 24.6844 80.9827 25.0077 80.9893C25.554 80.9739 26.0909 81.1335 26.5401 81.4447C26.9894 81.756 27.3274 82.2026 27.5049 82.7195L33.1104 97.2349L38.7828 82.559C38.9781 82.0917 39.3079 81.6929 39.7303 81.4135C40.1527 81.134 40.6487 80.9863 41.1552 80.9893C41.4733 80.9815 41.7897 81.0377 42.0857 81.1545C42.3817 81.2713 42.6512 81.4463 42.8783 81.6693C43.1053 81.8922 43.2853 82.1584 43.4076 82.4522C43.5299 82.746 43.5919 83.0613 43.59 83.3795C43.5748 83.7488 43.4901 84.1119 43.3403 84.4498L35.9956 102.006C35.7969 102.585 35.4202 103.085 34.9195 103.436C34.4188 103.787 33.8198 103.97 33.2085 103.96H32.8874C32.2761 103.97 31.6771 103.787 31.1764 103.436C30.6757 103.085 30.299 102.585 30.1003 102.006Z" fill="url(#paint0_linear)"/>
<path d="M43.2244 93.6761C43.2279 93.0555 43.4763 92.4614 43.9156 92.023C44.3548 91.5846 44.9494 91.3373 45.57 91.335H51.1443C51.46 91.3212 51.7753 91.3715 52.0711 91.4828C52.3669 91.5941 52.6371 91.7642 52.8654 91.9827C53.0937 92.2013 53.2754 92.4638 53.3995 92.7544C53.5236 93.0451 53.5876 93.3579 53.5876 93.6739C53.5876 93.99 53.5236 94.3027 53.3995 94.5934C53.2754 94.884 53.0937 95.1466 52.8654 95.3651C52.6371 95.5837 52.3669 95.7537 52.0711 95.865C51.7753 95.9764 51.46 96.0266 51.1443 96.0129H45.57C44.9498 96.0117 44.3552 95.7654 43.9158 95.3277C43.4765 94.89 43.2279 94.2963 43.2244 93.6761Z" fill="url(#paint1_linear)"/>
<path d="M55.5768 92.4591V92.3967C55.5768 86.0197 60.5401 80.8022 67.3363 80.8022C70.7299 80.8022 72.973 81.5737 74.9931 82.9829C75.3088 83.21 75.5662 83.5086 75.7445 83.8543C75.9227 84.2 76.0167 84.5829 76.0187 84.9718C76.0172 85.4283 75.8877 85.8753 75.6451 86.262C75.4024 86.6488 75.0563 86.9598 74.646 87.1599C74.2356 87.36 73.7774 87.4411 73.3233 87.394C72.8691 87.347 72.4373 87.1737 72.0766 86.8938C70.6609 85.8442 68.9328 85.3022 67.1713 85.3553C63.6038 85.3553 60.7274 88.5259 60.7274 92.3387V92.4056C60.7274 96.5038 63.5502 99.5183 67.5236 99.5183C69.1743 99.5695 70.7995 99.1016 72.1703 98.1805V94.9742H68.8346C68.5546 94.9778 68.2766 94.9257 68.0168 94.8211C67.757 94.7166 67.5206 94.5615 67.3211 94.3649C67.1216 94.1683 66.9631 93.9342 66.8547 93.6759C66.7463 93.4177 66.6902 93.1405 66.6897 92.8605C66.6897 92.2916 66.9156 91.746 67.3179 91.3437C67.7202 90.9415 68.2657 90.7155 68.8346 90.7155H74.4758C74.8005 90.7125 75.1225 90.7743 75.423 90.8971C75.7235 91.02 75.9966 91.2016 76.2262 91.4311C76.4558 91.6607 76.6373 91.9338 76.7602 92.2343C76.8831 92.5349 76.9448 92.8569 76.9418 93.1815V98.6309C76.9792 99.2618 76.8364 99.8903 76.53 100.443C76.2237 100.996 75.7664 101.45 75.2116 101.753C72.8531 103.21 70.1355 103.982 67.363 103.982C60.3796 103.996 55.5768 99.0902 55.5768 92.4591Z" fill="url(#paint2_linear)"/>
<path d="M78.5695 92.4592V92.3967C78.5695 86.0198 83.5997 80.8022 90.5207 80.8022C97.4417 80.8022 102.409 85.9618 102.409 92.3387V92.4056C102.409 98.7781 97.3793 104 90.4583 104C83.5373 104 78.5695 98.8361 78.5695 92.4592ZM97.2499 92.4592V92.3967C97.2499 88.5482 94.4316 85.3464 90.4583 85.3464C86.4849 85.3464 83.729 88.468 83.729 92.3298V92.3967C83.729 96.2407 86.5474 99.4426 90.5207 99.4426C94.494 99.4426 97.2366 96.3121 97.2366 92.4592H97.2499Z" fill="url(#paint3_linear)"/>
<path d="M98.191 44.8681C98.0187 44.8579 97.846 44.883 97.6838 44.9419C97.5215 45.0008 97.373 45.0922 97.2473 45.2106C97.1217 45.329 97.0216 45.4719 96.9531 45.6304C96.8847 45.7889 96.8494 45.9597 96.8494 46.1323C96.8494 46.305 96.8847 46.4758 96.9531 46.6343C97.0216 46.7928 97.1217 46.9356 97.2473 47.0541C97.373 47.1725 97.5215 47.2639 97.6838 47.3228C97.846 47.3817 98.0187 47.4068 98.191 47.3966H104.332C104.654 47.3774 104.957 47.2359 105.178 47.0009C105.4 46.7659 105.523 46.4552 105.523 46.1323C105.523 45.8095 105.4 45.4988 105.178 45.2638C104.957 45.0288 104.654 44.8873 104.332 44.8681H98.191Z" fill="url(#paint4_linear)"/>
<path d="M108.791 47.3967H109.723C110.045 47.3775 110.348 47.236 110.57 47.001C110.791 46.766 110.914 46.4553 110.914 46.1324C110.914 45.8095 110.791 45.4989 110.57 45.2639C110.348 45.0289 110.045 44.8873 109.723 44.8682H108.791C108.469 44.8873 108.166 45.0289 107.944 45.2639C107.723 45.4989 107.6 45.8095 107.6 46.1324C107.6 46.4553 107.723 46.766 107.944 47.001C108.166 47.236 108.469 47.3775 108.791 47.3967Z" fill="url(#paint5_linear)"/>
<path d="M13.6584 39.2314C13.4861 39.2212 13.3135 39.2463 13.1512 39.3052C12.9889 39.3641 12.8404 39.4556 12.7147 39.574C12.5891 39.6924 12.489 39.8352 12.4206 39.9937C12.3521 40.1522 12.3168 40.323 12.3168 40.4957C12.3168 40.6683 12.3521 40.8391 12.4206 40.9976C12.489 41.1561 12.5891 41.299 12.7147 41.4174C12.8404 41.5358 12.9889 41.6272 13.1512 41.6861C13.3135 41.745 13.4861 41.7701 13.6584 41.7599H17.11C17.4323 41.7408 17.7352 41.5992 17.9566 41.3642C18.178 41.1292 18.3014 40.8186 18.3014 40.4957C18.3014 40.1728 18.178 39.8621 17.9566 39.6271C17.7352 39.3921 17.4323 39.2506 17.11 39.2314H13.6584Z" fill="url(#paint6_linear)"/>
<path d="M9.26151 41.76C9.58383 41.7409 9.88666 41.5993 10.1081 41.3643C10.3295 41.1293 10.4529 40.8187 10.4529 40.4958C10.4529 40.1729 10.3295 39.8622 10.1081 39.6272C9.88666 39.3922 9.58383 39.2507 9.26151 39.2315H5.80547C5.48316 39.2507 5.18033 39.3922 4.95889 39.6272C4.73745 39.8622 4.61412 40.1729 4.61412 40.4958C4.61412 40.8187 4.73745 41.1293 4.95889 41.3643C5.18033 41.5993 5.48316 41.7409 5.80547 41.76H9.26151Z" fill="url(#paint7_linear)"/>
<path d="M108.091 51.4279C107.335 51.4288 106.598 51.6621 105.979 52.096C105.36 52.5299 104.889 53.1435 104.63 53.8538H99.8453C99.511 53.8555 99.1907 53.9884 98.9534 54.2239L92.0458 61.136H83.3054C84.8269 59.2297 86.0894 57.1304 87.0602 54.8928H91.7872C91.8745 54.9002 91.9624 54.8893 92.0453 54.8609C92.1282 54.8326 92.2043 54.7873 92.2688 54.728C92.3334 54.6687 92.3849 54.5966 92.4201 54.5164C92.4553 54.4361 92.4735 54.3494 92.4735 54.2618C92.4735 54.1742 92.4553 54.0875 92.4201 54.0073C92.3849 53.927 92.3334 53.855 92.2688 53.7957C92.2043 53.7363 92.1282 53.6911 92.0453 53.6627C91.9624 53.6343 91.8745 53.6235 91.7872 53.6308H87.573C88.3302 51.618 88.8452 49.5222 89.1071 47.3876H93.9678C94.2901 47.3685 94.593 47.227 94.8144 46.992C95.0358 46.757 95.1592 46.4463 95.1592 46.1234C95.1592 45.8005 95.0358 45.4898 94.8144 45.2548C94.593 45.0198 94.2901 44.8783 93.9678 44.8592H89.2721C89.3067 43.3093 89.1962 41.7596 88.9421 40.2303H104.523C104.691 40.2303 104.852 40.1636 104.971 40.0448C105.09 39.9261 105.156 39.765 105.156 39.5971C105.156 39.4291 105.09 39.268 104.971 39.1493C104.852 39.0305 104.691 38.9638 104.523 38.9638H88.7102C88.3952 37.5194 87.9474 36.1072 87.3724 34.7452L94.4182 27.744C94.6285 27.6531 94.8204 27.5247 94.9846 27.3649L104.349 18.0001H112.238C112.653 18.6922 113.283 19.2292 114.032 19.5289C114.781 19.8286 115.607 19.8744 116.385 19.6593C117.162 19.4443 117.848 18.9802 118.337 18.3381C118.825 17.6961 119.09 16.9116 119.09 16.1049C119.09 15.2982 118.825 14.5137 118.337 13.8716C117.848 13.2296 117.162 12.7655 116.385 12.5504C115.607 12.3354 114.781 12.3812 114.032 12.6809C113.283 12.9806 112.653 13.5176 112.238 14.2096H103.582C103.334 14.2094 103.088 14.2582 102.858 14.353C102.629 14.4479 102.42 14.5871 102.244 14.7626L96.7193 20.27C96.0666 20.7153 95.4848 21.2565 94.9935 21.8754L85.7447 31.2045C84.8028 29.6118 83.7032 28.1178 82.4625 26.745L85.9498 23.2578C86.051 23.1364 86.1032 22.9815 86.0961 22.8236C86.0889 22.6657 86.023 22.5162 85.9112 22.4045C85.7995 22.2927 85.65 22.2268 85.4921 22.2196C85.3342 22.2125 85.1793 22.2647 85.0579 22.3659L81.584 25.8532C80.5658 24.8341 79.4618 23.9046 78.2841 23.075L88.7146 12.6444C88.774 12.5863 88.8211 12.5169 88.8533 12.4403C88.8854 12.3637 88.902 12.2815 88.902 12.1985C88.902 12.1154 88.8854 12.0332 88.8533 11.9566C88.8211 11.88 88.774 11.8106 88.7146 11.7525C88.596 11.6349 88.4357 11.5689 88.2687 11.5689C88.1016 11.5689 87.9414 11.6349 87.8228 11.7525L77.303 22.2856C77.2767 22.317 77.2542 22.3514 77.2361 22.3882C68.237 16.6846 56.4374 17.1038 47.8308 23.0348L43.7861 18.9545C43.5488 18.719 43.2285 18.586 42.8942 18.5843H33.6231C33.3259 17.7688 32.751 17.0841 31.9992 16.6503C31.2473 16.2166 30.3668 16.0615 29.512 16.2124C28.6573 16.3633 27.883 16.8105 27.3251 17.4754C26.7673 18.1404 26.4615 18.9806 26.4615 19.8486C26.4615 20.7165 26.7673 21.5568 27.3251 22.2217C27.883 22.8867 28.6573 23.3338 29.512 23.4847C30.3668 23.6356 31.2473 23.4806 31.9992 23.0468C32.751 22.6131 33.3259 21.9283 33.6231 21.1128H42.3457L45.8062 24.5733C43.8422 26.2389 42.143 28.1937 40.7671 30.3705H25.5025C25.3328 30.3705 25.1701 30.438 25.05 30.558C24.93 30.678 24.8626 30.8407 24.8626 31.0105C24.8626 31.1802 24.93 31.343 25.05 31.463C25.1701 31.583 25.3328 31.6504 25.5025 31.6504H40.0135C38.824 33.798 37.9243 36.0938 37.3378 38.4777C37.2977 38.7364 37.2709 38.995 37.2308 39.2537H21.44C21.1177 39.2728 20.8149 39.4144 20.5934 39.6494C20.372 39.8843 20.2487 40.195 20.2487 40.5179C20.2487 40.8408 20.372 41.1515 20.5934 41.3865C20.8149 41.6215 21.1177 41.763 21.44 41.7822H36.9231C36.6823 44.2482 36.5752 46.799 36.544 49.3899H28.8649C28.697 49.3899 28.5359 49.4566 28.4172 49.5754C28.2984 49.6941 28.2317 49.8552 28.2317 50.0231C28.2317 50.1911 28.2984 50.3522 28.4172 50.4709C28.5359 50.5897 28.697 50.6564 28.8649 50.6564H36.5351C36.5351 51.7088 36.5351 52.7657 36.5351 53.827H27.1302L22.4345 49.1045C22.1967 48.8702 21.8764 48.7389 21.5426 48.7388H12.2938C11.9966 47.9233 11.4216 47.2386 10.6698 46.8048C9.918 46.3711 9.03742 46.216 8.18267 46.3669C7.32792 46.5178 6.55364 46.965 5.99579 47.6299C5.43794 48.2949 5.13217 49.1351 5.13217 50.0031C5.13217 50.871 5.43794 51.7113 5.99579 52.3762C6.55364 53.0412 7.32792 53.4884 8.18267 53.6393C9.03742 53.7901 9.918 53.6351 10.6698 53.2013C11.4216 52.7676 11.9966 52.0828 12.2938 51.2673H21.0164L24.6107 54.8705L20.8335 58.6476C20.0486 58.2821 19.1601 58.2046 18.3238 58.429C17.4875 58.6534 16.757 59.1652 16.2605 59.8746C15.764 60.5839 15.5333 61.4455 15.6089 62.3081C15.6844 63.1707 16.0614 63.979 16.6737 64.5913C17.2859 65.2035 18.0943 65.5805 18.9568 65.6561C19.8194 65.7316 20.681 65.5009 21.3904 65.0044C22.0998 64.508 22.6116 63.7775 22.8359 62.9412C23.0603 62.1049 22.9829 61.2163 22.6173 60.4314L26.72 56.3332H36.5752C36.6734 61.2386 36.8339 66.1796 36.6511 70.804H56.9324C62.6316 71.0493 68.0364 71.0047 72.9863 68.8775C75.961 67.6734 78.6735 65.9029 80.9731 63.6645H91.2297L95.9612 68.3602C96.1976 68.597 96.5185 68.7301 96.8531 68.7304H101.638C101.935 69.5446 102.51 70.2282 103.26 70.6611C104.011 71.094 104.891 71.2486 105.744 71.0978C106.598 70.9469 107.371 70.5002 107.928 69.8361C108.485 69.172 108.79 68.3329 108.79 67.4661C108.79 66.5993 108.485 65.7603 107.928 65.0962C107.371 64.4321 106.598 63.9854 105.744 63.8345C104.891 63.6836 104.011 63.8382 103.26 64.2711C102.51 64.704 101.935 65.3876 101.638 66.2019H97.3793L93.9678 62.7904L100.376 56.3823H104.639C104.871 57.0158 105.272 57.5737 105.799 57.9952C106.325 58.4167 106.957 58.6856 107.626 58.7728C108.295 58.86 108.975 58.762 109.592 58.4895C110.209 58.2171 110.74 57.7806 111.126 57.2276C111.513 56.6745 111.74 56.0262 111.783 55.353C111.827 54.6798 111.684 54.0076 111.372 53.4096C111.06 52.8116 110.59 52.3106 110.013 51.9612C109.436 51.6117 108.774 51.4273 108.1 51.4279H108.091ZM115.395 14.9321C115.625 14.9321 115.849 15.0001 116.039 15.1275C116.23 15.2549 116.379 15.436 116.466 15.6478C116.554 15.8597 116.577 16.0928 116.532 16.3177C116.488 16.5426 116.377 16.7492 116.215 16.9114C116.053 17.0735 115.846 17.1839 115.621 17.2287C115.397 17.2734 115.163 17.2505 114.952 17.1627C114.74 17.075 114.559 16.9263 114.431 16.7357C114.304 16.545 114.236 16.3208 114.236 16.0915C114.236 15.784 114.358 15.4891 114.575 15.2717C114.793 15.0542 115.088 14.9321 115.395 14.9321ZM30.1626 21.0102C29.9333 21.0102 29.7091 20.9422 29.5185 20.8148C29.3278 20.6874 29.1792 20.5064 29.0914 20.2945C29.0037 20.0826 28.9807 19.8495 29.0254 19.6246C29.0702 19.3997 29.1806 19.1931 29.3428 19.0309C29.5049 18.8688 29.7115 18.7584 29.9364 18.7136C30.1613 18.6689 30.3945 18.6919 30.6063 18.7796C30.8182 18.8674 30.9993 19.016 31.1267 19.2066C31.2541 19.3973 31.3221 19.6215 31.3221 19.8508C31.3209 20.1579 31.1984 20.4522 30.9812 20.6694C30.764 20.8865 30.4698 21.0091 30.1626 21.0102ZM8.83327 51.1603C8.60396 51.1603 8.37979 51.0923 8.18912 50.9649C7.99845 50.8375 7.84984 50.6564 7.76208 50.4445C7.67433 50.2327 7.65137 49.9996 7.69611 49.7747C7.74084 49.5497 7.85127 49.3432 8.01342 49.181C8.17557 49.0188 8.38217 48.9084 8.60708 48.8637C8.83199 48.8189 9.06511 48.8419 9.27697 48.9297C9.48883 49.0174 9.66992 49.166 9.79732 49.3567C9.92472 49.5474 9.99272 49.7715 9.99272 50.0009C9.99154 50.308 9.86901 50.6022 9.65183 50.8194C9.43464 51.0366 9.14042 51.1591 8.83327 51.1603ZM20.1111 62.8038C19.9491 62.9664 19.7426 63.0773 19.5175 63.1224C19.2925 63.1674 19.0591 63.1447 18.847 63.0571C18.6349 62.9695 18.4536 62.8209 18.326 62.6301C18.1984 62.4394 18.1303 62.215 18.1303 61.9855C18.1303 61.756 18.1984 61.5317 18.326 61.3409C18.4536 61.1501 18.6349 61.0015 18.847 60.9139C19.0591 60.8263 19.2925 60.8036 19.5175 60.8487C19.7426 60.8938 19.9491 61.0046 20.1111 61.1672C20.3276 61.3845 20.4492 61.6788 20.4492 61.9855C20.4492 62.2922 20.3276 62.5865 20.1111 62.8038ZM105.09 66.3089C105.319 66.3089 105.543 66.3769 105.734 66.5043C105.924 66.6317 106.073 66.8128 106.161 67.0247C106.249 67.2365 106.271 67.4696 106.227 67.6945C106.182 67.9195 106.072 68.126 105.909 68.2882C105.747 68.4504 105.541 68.5608 105.316 68.6055C105.091 68.6503 104.858 68.6273 104.646 68.5395C104.434 68.4518 104.253 68.3032 104.126 68.1125C103.998 67.9218 103.93 67.6977 103.93 67.4684C103.93 67.3159 103.959 67.1649 104.017 67.0239C104.075 66.883 104.161 66.755 104.268 66.6472C104.376 66.5394 104.504 66.454 104.645 66.396C104.786 66.3379 104.937 66.3083 105.09 66.3089ZM68.2014 67.1785C59.3405 68.4673 48.9278 67.339 39.7726 67.6958C40.0937 58.7324 39.1171 48.8236 40.1428 40.0831C44.6022 18.8296 73.1156 14.4371 83.3723 33.4208C81.5662 35.6193 79.2295 37.5011 77.303 39.6639C75.4479 36.199 72.246 33.6527 69.5303 30.8299L63.7598 36.6806C61.7531 35.0752 60.0808 32.9258 58.132 31.2C57.472 30.5445 56.375 29.385 55.0952 30.2412C54.7026 30.5512 54.4345 30.9919 54.3395 31.483C54.2446 31.974 54.3292 32.4829 54.5779 32.9169L61.0173 39.2849C59.3539 41.3184 57.1643 43.0531 55.3806 45.0286C53.3783 43.4277 51.7016 41.2783 49.7528 39.5525C49.0928 38.8925 48.0047 37.733 46.7204 38.5892C46.3471 38.8771 46.0843 39.2848 45.9763 39.7437C45.8683 40.2025 45.9216 40.6846 46.1273 41.1088L52.6425 47.6195C50.9301 49.7377 48.629 51.5037 46.7917 53.5416C50.5421 57.457 54.3192 61.9565 60.2636 62.6477C70.8904 64.8418 80.9151 54.0946 78.5472 43.6239L68.1122 53.9876C66.3819 55.7044 63.6795 59.8517 61.5256 56.3555L55.8979 50.7322C55.7803 50.5005 55.7124 50.2469 55.6984 49.9875C55.6844 49.7281 55.7246 49.4687 55.8165 49.2257C55.9084 48.9828 56.0499 48.7616 56.2321 48.5764C56.4143 48.3912 56.633 48.2461 56.8745 48.1502C58.7742 47.0621 61.9314 52.1012 63.5368 53.2562C68.1389 48.8905 72.585 44.2304 77.1559 39.7843V39.7085C77.6776 40.2392 78.4446 42.5715 78.4937 43.557C80.7635 41.6885 82.7167 39.2626 84.9331 37.2692V37.1934H85.0089C89.3613 50.1257 81.4458 63.9053 68.2014 67.1785ZM108.091 56.2752C107.861 56.2752 107.637 56.2072 107.447 56.0798C107.256 55.9524 107.107 55.7714 107.02 55.5595C106.932 55.3476 106.909 55.1145 106.954 54.8896C106.998 54.6647 107.109 54.4581 107.271 54.2959C107.433 54.1338 107.64 54.0234 107.865 53.9786C108.089 53.9339 108.323 53.9568 108.534 54.0446C108.746 54.1324 108.927 54.281 109.055 54.4716C109.182 54.6623 109.25 54.8865 109.25 55.1158C109.251 55.2682 109.221 55.4193 109.163 55.5602C109.105 55.7011 109.02 55.8292 108.912 55.937C108.804 56.0447 108.676 56.1301 108.535 56.1882C108.394 56.2462 108.243 56.2758 108.091 56.2752Z" fill="url(#paint8_linear)"/>
<path d="M11.2592 33.3677C11.7739 33.3674 12.2745 33.1998 12.6855 32.8901C13.0966 32.5804 13.3958 32.1455 13.538 31.6508H22.3141C22.482 31.6508 22.6431 31.5841 22.7619 31.4654C22.8806 31.3466 22.9473 31.1856 22.9473 31.0176C22.9473 30.8497 22.8806 30.6886 22.7619 30.5698C22.6431 30.4511 22.482 30.3844 22.3141 30.3844H13.538C13.4199 29.9581 13.1851 29.5734 12.86 29.2736C12.5348 28.9738 12.1323 28.7708 11.698 28.6876C11.2636 28.6044 10.8146 28.6443 10.4017 28.8027C9.98877 28.9612 9.62836 29.2319 9.36116 29.5843C9.09396 29.9368 8.9306 30.3569 8.88951 30.7972C8.84842 31.2376 8.93125 31.6807 9.12865 32.0765C9.32604 32.4722 9.63014 32.805 10.0066 33.0371C10.3831 33.2692 10.817 33.3914 11.2592 33.39V33.3677ZM11.2592 29.8849C11.4788 29.8849 11.6935 29.95 11.8761 30.0721C12.0587 30.1941 12.2011 30.3675 12.2851 30.5704C12.3691 30.7733 12.3911 30.9965 12.3483 31.2119C12.3054 31.4273 12.1997 31.6252 12.0444 31.7805C11.8891 31.9358 11.6913 32.0415 11.4759 32.0844C11.2605 32.1272 11.0372 32.1052 10.8343 32.0212C10.6314 31.9371 10.458 31.7948 10.336 31.6122C10.214 31.4296 10.1488 31.2149 10.1488 30.9953C10.1471 30.8482 10.1745 30.7021 10.2294 30.5656C10.2844 30.4291 10.3658 30.3048 10.469 30.1999C10.5723 30.095 10.6952 30.0116 10.8309 29.9545C10.9665 29.8974 11.1121 29.8677 11.2592 29.8671V29.8849Z" fill="url(#paint9_linear)"/>
<path d="M89.9234 11.1774C90.0062 11.178 90.0882 11.1622 90.1648 11.1308C90.2413 11.0994 90.3109 11.0531 90.3694 10.9946L94.3561 7.00788H98.9091C99.0619 7.56247 99.4105 8.04286 99.8905 8.35997C100.37 8.67707 100.949 8.80937 101.519 8.73231C102.089 8.65526 102.612 8.3741 102.99 7.94096C103.369 7.50782 103.578 6.9521 103.578 6.37687C103.578 5.80164 103.369 5.24592 102.99 4.81278C102.612 4.37964 102.089 4.09848 101.519 4.02142C100.949 3.94437 100.37 4.07667 99.8905 4.39377C99.4105 4.71088 99.0619 5.19127 98.9091 5.74586H94.0885C94.012 5.74643 93.9364 5.76156 93.8656 5.79046C93.7884 5.82434 93.7175 5.87109 93.656 5.9287L89.4909 10.0982C89.4321 10.1567 89.3854 10.2262 89.3536 10.3027C89.3218 10.3792 89.3054 10.4613 89.3054 10.5442C89.3054 10.6271 89.3218 10.7091 89.3536 10.7857C89.3854 10.8622 89.4321 10.9317 89.4909 10.9901C89.5471 11.0482 89.6143 11.0947 89.6885 11.1268C89.7627 11.159 89.8426 11.1762 89.9234 11.1774ZM101.188 5.26425C101.409 5.26337 101.625 5.32811 101.809 5.45028C101.993 5.57244 102.137 5.74651 102.221 5.9504C102.306 6.15429 102.329 6.37882 102.286 6.5955C102.243 6.81217 102.137 7.01123 101.981 7.16741C101.824 7.32359 101.625 7.42986 101.409 7.47274C101.192 7.51561 100.968 7.49316 100.764 7.40823C100.56 7.32329 100.386 7.17971 100.264 6.99569C100.141 6.81167 100.077 6.59551 100.078 6.37464C100.078 6.08015 100.194 5.79771 100.403 5.58947C100.611 5.38124 100.893 5.26425 101.188 5.26425Z" fill="url(#paint10_linear)"/>
<path d="M86.8106 21.519C86.869 21.5778 86.9385 21.6244 87.015 21.6563C87.0915 21.6881 87.1736 21.7045 87.2565 21.7045C87.3394 21.7045 87.4215 21.6881 87.498 21.6563C87.5745 21.6244 87.644 21.5778 87.7024 21.519L89.9321 19.2893C90.0498 19.1707 90.1158 19.0104 90.1158 18.8434C90.1158 18.6763 90.0498 18.516 89.9321 18.3974C89.874 18.3381 89.8046 18.291 89.728 18.2588C89.6515 18.2266 89.5692 18.21 89.4862 18.21C89.4031 18.21 89.3209 18.2266 89.2443 18.2588C89.1678 18.291 89.0984 18.3381 89.0402 18.3974L86.8106 20.6271C86.6929 20.7457 86.6269 20.906 86.6269 21.0731C86.6269 21.2401 86.6929 21.4004 86.8106 21.519Z" fill="url(#paint11_linear)"/>
<path d="M110.958 39.606C110.958 39.4389 110.892 39.2785 110.774 39.1598C110.657 39.0412 110.497 38.974 110.33 38.9728H107.44C107.272 38.9728 107.111 39.0395 106.992 39.1583C106.873 39.277 106.807 39.4381 106.807 39.606C106.807 39.774 106.873 39.9351 106.992 40.0538C107.111 40.1726 107.272 40.2393 107.44 40.2393H110.33C110.497 40.2381 110.657 40.1709 110.774 40.0522C110.892 39.9336 110.958 39.7732 110.958 39.606Z" fill="url(#paint12_linear)"/>
<path d="M118.017 37.2293C117.499 37.2312 116.996 37.4027 116.585 37.7175C116.173 38.0324 115.876 38.4733 115.739 38.9729H112.969C112.801 38.9729 112.64 39.0396 112.522 39.1584C112.403 39.2771 112.336 39.4382 112.336 39.6061C112.336 39.7741 112.403 39.9352 112.522 40.0539C112.64 40.1727 112.801 40.2394 112.969 40.2394H115.739C115.858 40.6636 116.094 41.046 116.419 41.3436C116.744 41.6412 117.145 41.8422 117.578 41.924C118.011 42.0058 118.459 41.9651 118.87 41.8066C119.281 41.648 119.64 41.3778 119.906 41.0265C120.172 40.6751 120.335 40.2565 120.376 39.8177C120.417 39.3789 120.334 38.9374 120.138 38.5428C119.942 38.1482 119.639 37.8162 119.265 37.5841C118.89 37.3521 118.458 37.2292 118.017 37.2293ZM118.017 40.7165C117.799 40.7121 117.586 40.6433 117.407 40.5187C117.227 40.394 117.088 40.2191 117.008 40.0158C116.927 39.8126 116.908 39.5901 116.954 39.3762C116.999 39.1623 117.106 38.9665 117.262 38.8134C117.419 38.6604 117.616 38.5568 117.831 38.5157C118.046 38.4747 118.268 38.4979 118.47 38.5826C118.671 38.6672 118.843 38.8095 118.964 38.9916C119.086 39.1737 119.15 39.3875 119.15 39.6061C119.15 39.7539 119.121 39.9001 119.064 40.0363C119.006 40.1725 118.923 40.2959 118.817 40.3993C118.712 40.5027 118.587 40.584 118.449 40.6385C118.312 40.693 118.165 40.7195 118.017 40.7165Z" fill="url(#paint13_linear)"/>
</g>
<defs>
<filter id="filter0_d" x="0.61412" y="0" width="135.772" height="120" filterUnits="userSpaceOnUse" color-interpolation-filters="sRGB">
<feFlood flood-opacity="0" result="BackgroundImageFix"/>
<feColorMatrix in="SourceAlpha" type="matrix" values="0 0 0 0 0 0 0 0 0 0 0 0 0 0 0 0 0 0 127 0"/>
<feOffset dx="6" dy="6"/>
<feGaussianBlur stdDeviation="5"/>
<feColorMatrix type="matrix" values="0 0 0 0 0 0 0 0 0 0 0 0 0 0 0 0 0 0 0.25 0"/>
<feBlend mode="normal" in2="BackgroundImageFix" result="effect1_dropShadow"/>
<feBlend mode="normal" in="SourceGraphic" in2="effect1_dropShadow" result="shape"/>
</filter>
<linearGradient id="paint0_linear" x1="22.5371" y1="92.4742" x2="42.8411" y2="94.8634" gradientUnits="userSpaceOnUse">
<stop stop-color="#60B45E"/>
<stop offset="1" stop-color="#3CA874"/>
</linearGradient>
<linearGradient id="paint1_linear" x1="43.2244" y1="93.6739" x2="52.6002" y2="96.3383" gradientUnits="userSpaceOnUse">
<stop stop-color="#60B45E"/>
<stop offset="1" stop-color="#3CA874"/>
</linearGradient>
<linearGradient id="paint2_linear" x1="55.5768" y1="92.3922" x2="76.184" y2="94.8316" gradientUnits="userSpaceOnUse">
<stop stop-color="#60B45E"/>
<stop offset="1" stop-color="#3CA874"/>
</linearGradient>
<linearGradient id="paint3_linear" x1="78.5695" y1="92.4012" x2="101.481" y2="95.4244" gradientUnits="userSpaceOnUse">
<stop stop-color="#60B45E"/>
<stop offset="1" stop-color="#3CA874"/>
</linearGradient>
<linearGradient id="paint4_linear" x1="96.8494" y1="46.1323" x2="103.956" y2="49.2571" gradientUnits="userSpaceOnUse">
<stop stop-color="#60B45E"/>
<stop offset="1" stop-color="#3CA874"/>
</linearGradient>
<linearGradient id="paint5_linear" x1="107.6" y1="46.1324" x2="110.751" y2="46.6629" gradientUnits="userSpaceOnUse">
<stop stop-color="#60B45E"/>
<stop offset="1" stop-color="#3CA874"/>
</linearGradient>
<linearGradient id="paint6_linear" x1="12.3168" y1="40.4957" x2="17.6752" y2="42.1212" gradientUnits="userSpaceOnUse">
<stop stop-color="#60B45E"/>
<stop offset="1" stop-color="#3CA874"/>
</linearGradient>
<linearGradient id="paint7_linear" x1="4.61412" y1="40.4958" x2="9.8618" y2="42.0517" gradientUnits="userSpaceOnUse">
<stop stop-color="#60B45E"/>
<stop offset="1" stop-color="#3CA874"/>
</linearGradient>
<linearGradient id="paint8_linear" x1="5.13217" y1="41.3615" x2="110.22" y2="67.167" gradientUnits="userSpaceOnUse">
<stop stop-color="#60B45E"/>
<stop offset="1" stop-color="#3CA874"/>
</linearGradient>
<linearGradient id="paint9_linear" x1="8.87925" y1="31.0176" x2="20.8935" y2="35.5913" gradientUnits="userSpaceOnUse">
<stop stop-color="#60B45E"/>
<stop offset="1" stop-color="#3CA874"/>
</linearGradient>
<linearGradient id="paint10_linear" x1="89.3054" y1="7.58872" x2="102.406" y2="10.9336" gradientUnits="userSpaceOnUse">
<stop stop-color="#60B45E"/>
<stop offset="1" stop-color="#3CA874"/>
</linearGradient>
<linearGradient id="paint11_linear" x1="86.6269" y1="19.9573" x2="89.9831" y2="20.3875" gradientUnits="userSpaceOnUse">
<stop stop-color="#60B45E"/>
<stop offset="1" stop-color="#3CA874"/>
</linearGradient>
<linearGradient id="paint12_linear" x1="106.807" y1="39.606" x2="110.255" y2="41.0575" gradientUnits="userSpaceOnUse">
<stop stop-color="#60B45E"/>
<stop offset="1" stop-color="#3CA874"/>
</linearGradient>
<linearGradient id="paint13_linear" x1="112.336" y1="39.5972" x2="119.849" y2="41.2368" gradientUnits="userSpaceOnUse">
<stop stop-color="#60B45E"/>
<stop offset="1" stop-color="#3CA874"/>
</linearGradient>
</defs>
</svg>
